<svg width="400" height="250" viewBox="0 0 400 250" fill="none" xmlns="http://www.w3.org/2000/svg">
<defs>
<linearGradient id="analytics-bg" x1="0%" y1="0%" x2="100%" y2="100%">
  <stop offset="0%" style="stop-color:#1e2a4a;stop-opacity:1" />
  <stop offset="100%" style="stop-color:#0f1221;stop-opacity:1" />
</linearGradient>
<linearGradient id="accent-gradient3" x1="0%" y1="0%" x2="100%" y2="0%">
  <stop offset="0%" style="stop-color:#00F5A0;stop-opacity:1" />
  <stop offset="100%" style="stop-color:#00D9F5;stop-opacity:1" />
</linearGradient>
</defs>
<rect width="400" height="250" rx="12" fill="url(#analytics-bg)" stroke="rgba(255,255,255,0.1)" stroke-width="1"/>

<!-- Header -->
<rect x="20" y="20" width="360" height="30" rx="6" fill="rgba(255,255,255,0.05)"/>
<text x="30" y="38" fill="#ffffff" font-family="system-ui" font-size="12" font-weight="600">Live Analytics</text>
<circle cx="360" cy="35" r="4" fill="#00F5A0"/>
<text x="345" y="39" fill="#00F5A0" font-family="system-ui" font-size="8">LIVE</text>

<!-- Main Chart -->
<rect x="20" y="65" width="360" height="120" rx="8" fill="rgba(255,255,255,0.05)"/>

<!-- Chart Grid Lines -->
<line x1="20" y1="105" x2="380" y2="105" stroke="rgba(255,255,255,0.1)" stroke-width="1"/>
<line x1="20" y1="125" x2="380" y2="125" stroke="rgba(255,255,255,0.1)" stroke-width="1"/>
<line x1="20" y1="145" x2="380" y2="145" stroke="rgba(255,255,255,0.1)" stroke-width="1"/>
<line x1="20" y1="165" x2="380" y2="165" stroke="rgba(255,255,255,0.1)" stroke-width="1"/>

<!-- Animated Chart Line -->
<g id="chart-line">
  <polyline points="30,170 60,155 90,140 120,125 150,110 180,95 210,85 240,75 270,65 300,55 330,50 360,45" 
            fill="none" stroke="url(#accent-gradient3)" stroke-width="3" opacity="0.8"/>
  
  <!-- Data points -->
  <circle cx="60" cy="155" r="3" fill="#00F5A0"/>
  <circle cx="120" cy="125" r="3" fill="#00D9F5"/>
  <circle cx="180" cy="95" r="3" fill="#00F5A0"/>
  <circle cx="240" cy="75" r="3" fill="#00D9F5"/>
  <circle cx="300" cy="55" r="3" fill="#00F5A0"/>
  <circle cx="360" cy="45" r="4" fill="url(#accent-gradient3)">
    <animate attributeName="r" values="3;6;3" dur="2s" repeatCount="indefinite"/>
  </circle>
</g>

<!-- Y-axis labels -->
<text x="15" y="175" fill="#8892a4" font-family="system-ui" font-size="8">0</text>
<text x="10" y="148" fill="#8892a4" font-family="system-ui" font-size="8">50</text>
<text x="5" y="108" fill="#8892a4" font-family="system-ui" font-size="8">100</text>
<text x="5" y="78" fill="#8892a4" font-family="system-ui" font-size="8">150</text>

<!-- Bottom Stats -->
<rect x="20" y="200" width="110" height="30" rx="6" fill="rgba(0,245,160,0.08)"/>
<text x="30" y="213" fill="#00F5A0" font-family="system-ui" font-size="8">REACH</text>
<text x="30" y="225" fill="#ffffff" font-family="system-ui" font-size="14" font-weight="600">47.2K</text>

<rect x="140" y="200" width="110" height="30" rx="6" fill="rgba(0,217,245,0.08)"/>
<text x="150" y="213" fill="#00D9F5" font-family="system-ui" font-size="8">ENGAGEMENT</text>
<text x="150" y="225" fill="#ffffff" font-family="system-ui" font-size="14" font-weight="600">8.3%</text>

<rect x="260" y="200" width="120" height="30" rx="6" fill="rgba(255,255,255,0.05)"/>
<text x="270" y="213" fill="#b8c5d1" font-family="system-ui" font-size="8">GROWTH</text>
<text x="270" y="225" fill="#ffffff" font-family="system-ui" font-size="14" font-weight="600">+142%</text>

<!-- Real-time indicator -->
<circle cx="370" cy="75" r="2" fill="#00F5A0">
  <animate attributeName="opacity" values="1;0.3;1" dur="1s" repeatCount="indefinite"/>
</circle>
</svg>