<svg width="400" height="250" viewBox="0 0 400 250" fill="none" xmlns="http://www.w3.org/2000/svg">
<defs>
<linearGradient id="queue-bg" x1="0%" y1="0%" x2="100%" y2="100%">
  <stop offset="0%" style="stop-color:#1e2a4a;stop-opacity:1" />
  <stop offset="100%" style="stop-color:#0f1221;stop-opacity:1" />
</linearGradient>
<linearGradient id="accent-gradient2" x1="0%" y1="0%" x2="100%" y2="0%">
  <stop offset="0%" style="stop-color:#00F5A0;stop-opacity:1" />
  <stop offset="100%" style="stop-color:#00D9F5;stop-opacity:1" />
</linearGradient>
</defs>
<rect width="400" height="250" rx="12" fill="url(#queue-bg)" stroke="rgba(255,255,255,0.1)" stroke-width="1"/>

<!-- Header -->
<rect x="20" y="20" width="360" height="30" rx="6" fill="rgba(255,255,255,0.05)"/>
<text x="30" y="38" fill="#ffffff" font-family="system-ui" font-size="12" font-weight="600">Auto-Post Queue</text>
<rect x="320" y="25" width="50" height="20" rx="10" fill="url(#accent-gradient2)"/>
<text x="335" y="37" fill="#1b1f3b" font-family="system-ui" font-size="9" font-weight="600">LIVE</text>

<!-- Queue Items -->
<g id="post-item-1">
  <rect x="20" y="70" width="360" height="35" rx="6" fill="rgba(255,255,255,0.08)" stroke="rgba(0,245,160,0.1)" stroke-width="1"/>
  <circle cx="35" cy="87.5" r="8" fill="#00F5A0"/>
  <text x="55" y="85" fill="#ffffff" font-family="system-ui" font-size="10" font-weight="500">Instagram Post</text>
  <text x="55" y="97" fill="#b8c5d1" font-family="system-ui" font-size="8">Scheduled for 2:00 PM</text>
  <text x="340" y="90" fill="#00F5A0" font-family="system-ui" font-size="8">READY</text>
</g>

<g id="post-item-2">
  <rect x="20" y="115" width="360" height="35" rx="6" fill="rgba(255,255,255,0.08)" stroke="rgba(0,217,245,0.1)" stroke-width="1"/>
  <circle cx="35" cy="132.5" r="8" fill="#00D9F5"/>
  <text x="55" y="130" fill="#ffffff" font-family="system-ui" font-size="10" font-weight="500">X (Twitter) Thread</text>
  <text x="55" y="142" fill="#b8c5d1" font-family="system-ui" font-size="8">Scheduled for 3:30 PM</text>
  <text x="340" y="135" fill="#00D9F5" font-family="system-ui" font-size="8">READY</text>
</g>

<g id="post-item-3">
  <rect x="20" y="160" width="360" height="35" rx="6" fill="rgba(255,255,255,0.05)"/>
  <circle cx="35" cy="177.5" r="8" fill="rgba(255,255,255,0.3)"/>
  <text x="55" y="175" fill="#ffffff" font-family="system-ui" font-size="10" font-weight="500">YouTube Short</text>
  <text x="55" y="187" fill="#b8c5d1" font-family="system-ui" font-size="8">Processing...</text>
  <text x="325" y="180" fill="#8892a4" font-family="system-ui" font-size="8">PENDING</text>
</g>

<!-- Progress Indicator -->
<rect x="20" y="210" width="360" height="20" rx="10" fill="rgba(255,255,255,0.05)"/>
<rect x="20" y="210" width="240" height="20" rx="10" fill="url(#accent-gradient2)"/>
<text x="200" y="223" fill="#1b1f3b" font-family="system-ui" font-size="9" font-weight="600">67% Complete</text>

<!-- Animated processing dots -->
<g id="processing-dots">
  <circle cx="300" cy="177.5" r="2" fill="#8892a4">
    <animate attributeName="opacity" values="1;0.3;1" dur="1s" repeatCount="indefinite" begin="0s"/>
  </circle>
  <circle cx="308" cy="177.5" r="2" fill="#8892a4">
    <animate attributeName="opacity" values="1;0.3;1" dur="1s" repeatCount="indefinite" begin="0.33s"/>
  </circle>
  <circle cx="316" cy="177.5" r="2" fill="#8892a4">
    <animate attributeName="opacity" values="1;0.3;1" dur="1s" repeatCount="indefinite" begin="0.66s"/>
  </circle>
</g>
</svg>