<svg width="1200" height="630" viewBox="0 0 1200 630" fill="none" xmlns="http://www.w3.org/2000/svg">
<defs>
<linearGradient id="og-bg" x1="0%" y1="0%" x2="100%" y2="100%">
  <stop offset="0%" style="stop-color:#1e2a4a;stop-opacity:1" />
  <stop offset="100%" style="stop-color:#0f1221;stop-opacity:1" />
</linearGradient>
<linearGradient id="og-accent" x1="0%" y1="0%" x2="100%" y2="0%">
  <stop offset="0%" style="stop-color:#00F5A0;stop-opacity:1" />
  <stop offset="100%" style="stop-color:#00D9F5;stop-opacity:1" />
</linearGradient>
</defs>
<rect width="1200" height="630" fill="url(#og-bg)"/>

<!-- Background Elements -->
<circle cx="1000" cy="100" r="80" fill="rgba(0,245,160,0.1)"/>
<circle cx="200" cy="500" r="60" fill="rgba(0,217,245,0.1)"/>

<!-- Main Content -->
<text x="600" y="200" text-anchor="middle" fill="#ffffff" font-family="system-ui" font-size="48" font-weight="800">AutoFlow AI</text>
<text x="600" y="250" text-anchor="middle" fill="url(#og-accent)" font-family="system-ui" font-size="32" font-weight="700">Social Media Automation</text>
<text x="600" y="320" text-anchor="middle" fill="#b8c5d1" font-family="system-ui" font-size="24">Save 40+ hours monthly with AI-driven workflows</text>

<!-- Feature Icons -->
<g transform="translate(300, 400)">
  <rect x="0" y="0" width="80" height="80" rx="12" fill="rgba(255,255,255,0.08)"/>
  <circle cx="40" cy="40" r="20" fill="url(#og-accent)"/>
  <text x="40" y="46" text-anchor="middle" fill="#1b1f3b" font-family="system-ui" font-size="14" font-weight="700">AI</text>
</g>

<g transform="translate(450, 400)">
  <rect x="0" y="0" width="80" height="80" rx="12" fill="rgba(255,255,255,0.08)"/>
  <circle cx="40" cy="40" r="20" fill="url(#og-accent)"/>
  <text x="40" y="46" text-anchor="middle" fill="#1b1f3b" font-family="system-ui" font-size="12" font-weight="700">📊</text>
</g>

<g transform="translate(600, 400)">
  <rect x="0" y="0" width="80" height="80" rx="12" fill="rgba(255,255,255,0.08)"/>
  <circle cx="40" cy="40" r="20" fill="url(#og-accent)"/>
  <text x="40" y="46" text-anchor="middle" fill="#1b1f3b" font-family="system-ui" font-size="12" font-weight="700">🚀</text>
</g>

<!-- Bottom Text -->
<text x="600" y="550" text-anchor="middle" fill="#8892a4" font-family="system-ui" font-size="18">X • Instagram • YouTube Automation</text>
</svg>