<svg width="500" height="400" viewBox="0 0 500 400" fill="none" xmlns="http://www.w3.org/2000/svg">
  <defs>
    <linearGradient id="dashboardGrad" x1="0%" y1="0%" x2="100%" y2="100%">
      <stop offset="0%" stop-color="#00E5FF" stop-opacity="0.8"/>
      <stop offset="100%" stop-color="#00E5FF" stop-opacity="0.3"/>
    </linearGradient>
  </defs>
  
  <!-- Dashboard Frame -->
  <rect x="50" y="50" width="400" height="300" rx="12" fill="none" stroke="url(#dashboardGrad)" stroke-width="2" stroke-dasharray="1000" stroke-dashoffset="1000"/>
  
  <!-- Header Bar -->
  <rect x="70" y="70" width="360" height="40" rx="8" fill="none" stroke="#00E5FF" stroke-width="1.5" stroke-opacity="0.6" stroke-dasharray="1000" stroke-dashoffset="1000"/>
  
  <!-- Navigation Dots -->
  <circle cx="90" cy="90" r="4" fill="#00E5FF" opacity="0.8"/>
  <circle cx="110" cy="90" r="4" fill="#00E5FF" opacity="0.6"/>
  <circle cx="130" cy="90" r="4" fill="#00E5FF" opacity="0.4"/>
  
  <!-- Chart Area -->
  <rect x="70" y="130" width="170" height="120" rx="6" fill="none" stroke="#00E5FF" stroke-width="1.5" stroke-opacity="0.5" stroke-dasharray="1000" stroke-dashoffset="1000"/>
  
  <!-- Chart Lines -->
  <path d="M90 220 L110 200 L130 180 L150 160 L170 140 L190 120 L210 100" fill="none" stroke="#00E5FF" stroke-width="2" stroke-linecap="round" stroke-dasharray="1000" stroke-dashoffset="1000"/>
  <path d="M90 230 L110 225 L130 210 L150 195 L170 180 L190 165 L210 150" fill="none" stroke="#00E5FF" stroke-width="2" stroke-opacity="0.6" stroke-linecap="round" stroke-dasharray="1000" stroke-dashoffset="1000"/>
  
  <!-- Stats Cards -->
  <rect x="260" y="130" width="80" height="50" rx="6" fill="none" stroke="#00E5FF" stroke-width="1.5" stroke-opacity="0.5" stroke-dasharray="1000" stroke-dashoffset="1000"/>
  <rect x="350" y="130" width="80" height="50" rx="6" fill="none" stroke="#00E5FF" stroke-width="1.5" stroke-opacity="0.5" stroke-dasharray="1000" stroke-dashoffset="1000"/>
  <rect x="260" y="200" width="80" height="50" rx="6" fill="none" stroke="#00E5FF" stroke-width="1.5" stroke-opacity="0.5" stroke-dasharray="1000" stroke-dashoffset="1000"/>
  <rect x="350" y="200" width="80" height="50" rx="6" fill="none" stroke="#00E5FF" stroke-width="1.5" stroke-opacity="0.5" stroke-dasharray="1000" stroke-dashoffset="1000"/>
  
  <!-- Social Media Icons -->
  <circle cx="280" cy="155" r="8" fill="none" stroke="#00E5FF" stroke-width="1.5" stroke-opacity="0.7" stroke-dasharray="1000" stroke-dashoffset="1000"/>
  <circle cx="370" cy="155" r="8" fill="none" stroke="#00E5FF" stroke-width="1.5" stroke-opacity="0.7" stroke-dasharray="1000" stroke-dashoffset="1000"/>
  <circle cx="280" cy="225" r="8" fill="none" stroke="#00E5FF" stroke-width="1.5" stroke-opacity="0.7" stroke-dasharray="1000" stroke-dashoffset="1000"/>
  <circle cx="370" cy="225" r="8" fill="none" stroke="#00E5FF" stroke-width="1.5" stroke-opacity="0.7" stroke-dasharray="1000" stroke-dashoffset="1000"/>
  
  <!-- Bottom Timeline -->
  <rect x="70" y="270" width="360" height="60" rx="6" fill="none" stroke="#00E5FF" stroke-width="1.5" stroke-opacity="0.4" stroke-dasharray="1000" stroke-dashoffset="1000"/>
  
  <!-- Timeline Items -->
  <rect x="90" y="285" width="40" height="30" rx="4" fill="none" stroke="#00E5FF" stroke-width="1" stroke-opacity="0.6" stroke-dasharray="1000" stroke-dashoffset="1000"/>
  <rect x="140" y="285" width="40" height="30" rx="4" fill="none" stroke="#00E5FF" stroke-width="1" stroke-opacity="0.6" stroke-dasharray="1000" stroke-dashoffset="1000"/>
  <rect x="190" y="285" width="40" height="30" rx="4" fill="none" stroke="#00E5FF" stroke-width="1" stroke-opacity="0.6" stroke-dasharray="1000" stroke-dashoffset="1000"/>
  <rect x="240" y="285" width="40" height="30" rx="4" fill="none" stroke="#00E5FF" stroke-width="1" stroke-opacity="0.6" stroke-dasharray="1000" stroke-dashoffset="1000"/>
  
  <!-- Floating Particles -->
  <circle cx="400" cy="100" r="2" fill="#00E5FF" opacity="0.8">
    <animate attributeName="cy" values="100;80;100" dur="3s" repeatCount="indefinite"/>
  </circle>
  <circle cx="480" cy="150" r="1.5" fill="#00E5FF" opacity="0.6">
    <animate attributeName="cy" values="150;130;150" dur="4s" repeatCount="indefinite"/>
  </circle>
  <circle cx="20" cy="200" r="2.5" fill="#00E5FF" opacity="0.4">
    <animate attributeName="cy" values="200;180;200" dur="5s" repeatCount="indefinite"/>
  </circle>
</svg>